<svg width="16" height="16" viewBox="0 0 16 16" fill="none" xmlns="http://www.w3.org/2000/svg">
<path fill-rule="evenodd" clip-rule="evenodd" d="M8 1.6C4.4712 1.6 1.6 4.4712 1.6 8C1.6 11.5288 4.4712 14.4 8 14.4C11.5288 14.4 14.4 11.5288 14.4 8C14.4 4.4712 11.5288 1.6 8 1.6ZM8 16C3.5888 16 0 12.4112 0 8C0 3.5888 3.5888 0 8 0C12.4112 0 16 3.5888 16 8C16 12.4112 12.4112 16 8 16Z" fill="black"/>
<path fill-rule="evenodd" clip-rule="evenodd" d="M7.19995 11.2121H8.79995V9.6121L7.19995 9.6001V11.2121Z" fill="black"/>
<path fill-rule="evenodd" clip-rule="evenodd" d="M7.2057 6.4144C7.1705 5.9152 7.4249 5.4856 7.8465 5.4856C8.2481 5.4856 8.4489 5.7448 8.4489 6.0952C8.4489 6.256 8.3273 6.4872 8.1777 6.6568L7.4633 7.4776C7.2657 7.744 7.2065 7.8768 7.2049 8.0096V8.8096L8.8001 8.812L8.8009 8.5912C8.8009 8.4216 8.8113 8.3056 8.9009 8.1952L9.5817 7.3888C9.8609 7.028 10.0929 6.6272 10.0929 6.1048C10.0929 4.7128 9.0289 4 7.8465 4C6.6337 4 5.6001 5.052 5.6001 6.4144H7.2057Z" fill="black"/>
</svg>
