<svg width="16" height="16" viewBox="0 0 16 16" fill="none" xmlns="http://www.w3.org/2000/svg">
<rect width="16" height="16" fill="white"/>
<path d="M13.6296 1.11721H10.6695L14.4222 4.73944V1.78991C14.4222 1.22415 13.8938 1.10571 13.6296 1.11721Z" fill="#787878"/>
<path fill-rule="evenodd" clip-rule="evenodd" d="M7.4868 0.212331C7.77776 -0.070777 8.22224 -0.070777 8.5132 0.212331L15.7489 7.25284C16.2646 7.75461 15.9328 8.67247 15.2357 8.67247H13.9645V15.5104C13.9645 15.7808 13.7596 16 13.5069 16H10.1204V9.66797H5.84911V16H2.49311C2.24037 16 2.03548 15.7808 2.03548 15.5104V8.67247H0.764262C0.0671914 8.67247 -0.264616 7.75461 0.251065 7.25284L7.4868 0.212331Z" fill="#787878"/>
</svg>
